<svg xmlns="http://www.w3.org/2000/svg" version="1.1" xmlns:xlink="http://www.w3.org/1999/xlink" xmlns:svgjs="http://svgjs.com/svgjs" width="512" height="512" x="0" y="0" viewBox="0 0 64 64" style="enable-background:new 0 0 512 512" xml:space="preserve"><g><path d="M9.65 23.32a5.25 5.25 0 1 0-5.24-5.25 5.26 5.26 0 0 0 5.24 5.25zM22.47 40.89a2.79 2.79 0 0 0-2.83-2.27l-3.74.07-.6-6.77c2.09 1.07 5.3 1.55 9.05 1.32a2.31 2.31 0 0 0-.15-4.62h-2a12 12 0 0 1-6.2-1.71l-2.76-1.64a7.64 7.64 0 0 0-3.49-1.16 4.5 4.5 0 0 0-5.06 3.74 8.34 8.34 0 0 0-.09 3.36L6 40a5.48 5.48 0 0 0 5.44 4.65h5.86a.51.51 0 0 1 .5.42l2.14 11.6a2.65 2.65 0 0 0 2.6 2.17 2.4 2.4 0 0 0 .75-.12 2.65 2.65 0 0 0 1.86-3z" fill="#ffffff" data-original="#000000"></path><path d="M16.8 47.46a.78.78 0 0 0-.79-.78H9.37A5.44 5.44 0 0 1 4 42.2c0-.13-2.33-12.9-2.47-13.52a.78.78 0 0 0-.77-.62H.62A.79.79 0 0 0 0 29c.08.4 1.32 7.22 2.45 13.47a7 7 0 0 0 3.21 4.71L2.42 58.13a.79.79 0 0 0 .53 1 .83.83 0 0 0 .22 0 .78.78 0 0 0 .75-.55l3.19-10.72a6.79 6.79 0 0 0 2.26.38h3.4l2.49 10.06a.78.78 0 0 0 .75.6.58.58 0 0 0 .19 0 .75.75 0 0 0 .48-.35.77.77 0 0 0 .09-.59l-2.4-9.69H16a.78.78 0 0 0 .8-.81zM54.34 23.32a5.25 5.25 0 1 0-5.25-5.25 5.27 5.27 0 0 0 5.25 5.25zM58 40l1.4-8.94a8 8 0 0 0 0-2.58c-.51-3-2.31-4.54-5.2-4.38a7.64 7.64 0 0 0-3.49 1.16L48 26.91a12.07 12.07 0 0 1-6.19 1.71h-2a2.31 2.31 0 0 0-.15 4.62c3.74.23 7-.25 9-1.32L48 38.76l-3.67-.14h-.11a2.78 2.78 0 0 0-2.72 2.28l-2.64 14.83a2.65 2.65 0 0 0 1.86 3 2.4 2.4 0 0 0 .75.12 2.65 2.65 0 0 0 2.6-2.17l2.14-11.6a.51.51 0 0 1 .5-.42h5.85A5.49 5.49 0 0 0 58 40z" fill="#ffffff" data-original="#000000"></path><path d="M61.53 42.48C63.47 31.76 63.93 29.24 64 29a.79.79 0 0 0-.61-.93h-.14a.78.78 0 0 0-.77.62c-.1.44-1.3 7.08-2.47 13.52a5.44 5.44 0 0 1-5.36 4.48H48a.78.78 0 1 0 0 1.56h1.64l-2.4 9.69a.77.77 0 0 0 .09.59.75.75 0 0 0 .48.35.58.58 0 0 0 .19 0 .78.78 0 0 0 .75-.6l2.49-10.06h3.4a6.79 6.79 0 0 0 2.26-.38l3.19 10.72a.78.78 0 0 0 .75.55.83.83 0 0 0 .22 0 .79.79 0 0 0 .53-1l-3.27-10.92a7 7 0 0 0 3.21-4.71zM36 56.69h-3.22v-19.8H45.9a.78.78 0 0 0 0-1.56H18.1a.78.78 0 0 0 0 1.56h13.12v19.8H28a.78.78 0 0 0 0 1.56h8a.78.78 0 0 0 0-1.56zM15.17 14h5.58l2.94 2.93a.48.48 0 0 0 .34.15.41.41 0 0 0 .16 0 .48.48 0 0 0 .33-.39l.4-2.66h1.6a.78.78 0 0 0 .78-.78V5.66a.79.79 0 0 0-.78-.79H15.17a.79.79 0 0 0-.79.79v7.56a.78.78 0 0 0 .79.78zm9.68-5.52a.48.48 0 0 1-.48.49h-7a.49.49 0 1 1 0-1h7.05a.48.48 0 0 1 .43.51zM17.32 9.9h7.05a.49.49 0 0 1 0 1h-7a.49.49 0 1 1 0-1zM35.93 14h5.58l2.94 2.93a.51.51 0 0 0 .36.15h.14a.48.48 0 0 0 .33-.39l.4-2.66h1.6a.79.79 0 0 0 .79-.78V5.66a.8.8 0 0 0-.79-.79H35.93a.79.79 0 0 0-.79.79v7.56a.78.78 0 0 0 .79.78zm9.69-5.52a.48.48 0 0 1-.49.49h-7.05a.49.49 0 0 1 0-1h7.05a.48.48 0 0 1 .49.51zM38.08 9.9h7.05a.49.49 0 1 1 0 1h-7.05a.49.49 0 0 1 0-1z" fill="#ffffff" data-original="#000000"></path></g></svg>