<svg xmlns="http://www.w3.org/2000/svg" version="1.1" xmlns:xlink="http://www.w3.org/1999/xlink" xmlns:svgjs="http://svgjs.com/svgjs" width="512" height="512" x="0" y="0" viewBox="0 0 512.574 512.574" style="enable-background:new 0 0 512 512" xml:space="preserve" class=""><g><circle cx="256.254" cy="370.495" r="47.564" transform="rotate(-22.48 256.238 370.105)" fill="#ffffff" data-original="#000000" class=""></circle><path d="M310.172 435.678h-11.96c-12.106 7.819-26.505 12.38-41.957 12.38s-29.852-4.56-41.958-12.38h-11.964c-11.93 0-21.602 9.671-21.602 21.602v40.417c0 8.217 6.661 14.878 14.878 14.878h121.288c8.217 0 14.878-6.661 14.878-14.878v-40.416c-.001-11.931-9.673-21.603-21.603-21.603zM94.207 206.804h30.317c5.956 0 10.785 4.829 10.785 10.785v19.036c0 9.609 11.617 14.421 18.411 7.626l34.289-34.289a10.784 10.784 0 0 1 7.626-3.159h120.873c2.86 0 5.604 1.136 7.626 3.159l34.662 34.662c6.794 6.794 18.411 1.982 18.411-7.626v-19.41c0-5.956 4.829-10.785 10.785-10.785h30.317c8.615 0 15.599-6.984 15.599-15.599V15.599C433.91 6.984 426.926 0 418.311 0H94.207c-8.615 0-15.599 6.984-15.599 15.599v175.606c0 8.615 6.984 15.599 15.599 15.599zM310.286 90.149c8.284 0 15 6.716 15 15s-6.716 15-15 15-15-6.716-15-15c0-8.285 6.716-15 15-15zm-53.74 0c8.284 0 15 6.716 15 15s-6.716 15-15 15-15-6.716-15-15c0-8.285 6.716-15 15-15zm-54.74 0c8.284 0 15 6.716 15 15s-6.716 15-15 15-15-6.716-15-15c0-8.285 6.716-15 15-15z" fill="#ffffff" data-original="#000000" class=""></path><circle cx="405.721" cy="329.978" r="47.563" transform="rotate(-35.8 405.414 329.884)" fill="#ffffff" data-original="#000000" class=""></circle><path d="M453.177 393.25h-2.676c-12.66 8.987-28.107 14.292-44.78 14.292-16.651 0-32.08-5.292-44.731-14.257-12.031.364-22.299 7.855-26.69 18.401 16.326 8.675 27.474 25.854 27.474 45.595v12.865h106.408c8.217 0 14.878-6.661 14.878-14.878v-32.135c0-16.504-13.379-29.883-29.883-29.883z" fill="#ffffff" data-original="#000000" class=""></path><circle cx="104.853" cy="329.978" r="47.564" transform="rotate(-16.86 104.707 329.746)" fill="#ffffff" data-original="#000000" class=""></circle><path d="M150.674 393.25h-1.041c-12.66 8.987-28.108 14.292-44.78 14.292-16.673 0-32.12-5.305-44.78-14.292h-.676c-16.504 0-29.883 13.379-29.883 29.883v32.135c0 8.217 6.661 14.878 14.878 14.878h106.339v-12.865c0-19.764 11.174-36.959 27.531-45.624-4.508-10.798-15.175-18.407-27.588-18.407z" fill="#ffffff" data-original="#000000" class=""></path></g></svg>