<svg xmlns="http://www.w3.org/2000/svg" version="1.1" xmlns:xlink="http://www.w3.org/1999/xlink" xmlns:svgjs="http://svgjs.com/svgjs" width="512" height="512" x="0" y="0" viewBox="0 0 512 512" style="enable-background:new 0 0 512 512" xml:space="preserve"><g><path d="M352 0H64C28.704 0 0 28.704 0 64v192c0 35.296 28.704 64 64 64v80c0 6.24 3.648 11.936 9.312 14.528A15.875 15.875 0 0 0 80 416c3.744 0 7.456-1.312 10.4-3.84L197.92 320H352c35.296 0 64-28.704 64-64V64c0-35.296-28.704-64-64-64z" fill="#ffffff" data-original="#000000"></path><path d="M448 96v160c0 52.928-43.072 96-96 96H209.76l-70.368 60.288C145.92 414.528 152.768 416 160 416h154.08l107.488 92.16A16.11 16.11 0 0 0 432 512c2.272 0 4.576-.48 6.688-1.472C444.384 507.936 448 502.24 448 496v-80c35.296 0 64-28.704 64-64V160c0-35.296-28.704-64-64-64z" fill="#ffffff" data-original="#000000"></path></g></svg>