<svg xmlns="http://www.w3.org/2000/svg" version="1.1" xmlns:xlink="http://www.w3.org/1999/xlink" xmlns:svgjs="http://svgjs.com/svgjs" width="512" height="512" x="0" y="0" viewBox="0 0 512 512" style="enable-background:new 0 0 512 512" xml:space="preserve"><g><path d="M410.789 49.107h-38.955c1 4.713.438 6.968.598 21.353h38.358v419.545H101.211V70.46h38.358c.164-14.783-.393-16.682.598-21.353h-38.955c-11.79 0-21.352 9.562-21.352 21.353v419.545c0 11.789 9.562 21.352 21.352 21.352H410.79c11.79 0 21.352-9.562 21.352-21.352V70.46c-.001-11.791-9.563-21.353-21.353-21.353z" fill="#ffffff" data-original="#000000"></path><path d="M150.387 87.987h211.226c3.856 0 6.086-4.375 3.82-7.494l-3.825-5.269h-.036V54.712a16.005 16.005 0 0 0-16.028-16.027h-40.925a15.951 15.951 0 0 1-15.387-11.701l-.427-1.496C284.716 11.022 271.569.644 256 .644c-15.28 0-28.637 10.153-32.805 24.844l-.427 1.496a15.953 15.953 0 0 1-15.387 11.701h-40.925a16.006 16.006 0 0 0-16.028 16.027v20.512h-.036l-3.825 5.269c-2.266 3.12-.036 7.494 3.82 7.494zM256 17.159a13.029 13.029 0 0 1 13.084 13.083c0 7.2-5.815 13.084-13.084 13.084s-13.084-5.884-13.084-13.084A13.029 13.029 0 0 1 256 17.159zM161.58 127.049c-18.027 0-32.694 14.665-32.694 32.694s14.667 32.694 32.694 32.694c18.055 0 32.746-14.665 32.746-32.694s-14.691-32.694-32.746-32.694zm19.933 25.866-21.966 21.969a5.881 5.881 0 0 1-8.314 0l-9.534-9.538a5.877 5.877 0 0 1 0-8.314 5.879 5.879 0 0 1 8.314 0l5.377 5.381 17.808-17.811a5.877 5.877 0 0 1 8.314 0 5.875 5.875 0 0 1 .001 8.313zM378.372 140.091H214.635c-3.247 0-5.879 2.629-5.879 5.879s2.632 5.88 5.879 5.88h163.737c3.25 0 5.88-2.63 5.88-5.88s-2.631-5.879-5.88-5.879zM214.635 179.44h91.792c3.25 0 5.88-2.63 5.88-5.88s-2.63-5.88-5.88-5.88h-91.792c-3.247 0-5.879 2.63-5.879 5.88s2.631 5.88 5.879 5.88zM161.58 217.882c-18.027 0-32.694 14.665-32.694 32.694 0 18.03 14.667 32.694 32.694 32.694 18.055 0 32.746-14.664 32.746-32.694 0-18.029-14.691-32.694-32.746-32.694zm19.933 25.867-21.966 21.969a5.878 5.878 0 0 1-8.314 0l-9.534-9.537c-2.297-2.297-2.297-6.017 0-8.314s6.017-2.297 8.314 0l5.377 5.38 17.808-17.811a5.879 5.879 0 0 1 8.314 0 5.875 5.875 0 0 1 .001 8.313zM378.372 230.925H214.635a5.877 5.877 0 0 0-5.879 5.88 5.877 5.877 0 0 0 5.879 5.879h163.737c3.25 0 5.88-2.629 5.88-5.879a5.877 5.877 0 0 0-5.88-5.88zM214.635 270.274h91.792c3.25 0 5.88-2.63 5.88-5.88s-2.63-5.879-5.88-5.879h-91.792c-3.247 0-5.879 2.629-5.879 5.879s2.631 5.88 5.879 5.88zM161.58 308.717c-18.027 0-32.694 14.664-32.694 32.693 0 18.03 14.667 32.694 32.694 32.694 18.055 0 32.746-14.664 32.746-32.694 0-18.029-14.691-32.693-32.746-32.693zm19.933 25.867-21.966 21.969a5.881 5.881 0 0 1-8.314 0l-9.534-9.537a5.878 5.878 0 0 1 0-8.315 5.879 5.879 0 0 1 8.314 0l5.377 5.381 17.808-17.811a5.877 5.877 0 0 1 8.314 0 5.875 5.875 0 0 1 .001 8.313zM378.372 321.76H214.635c-3.247 0-5.879 2.629-5.879 5.879s2.632 5.88 5.879 5.88h163.737c3.25 0 5.88-2.63 5.88-5.88s-2.631-5.879-5.88-5.879zM214.635 361.107h91.792c3.25 0 5.88-2.629 5.88-5.879s-2.63-5.88-5.88-5.88h-91.792c-3.247 0-5.879 2.63-5.879 5.88s2.631 5.879 5.879 5.879zM161.58 399.55c-18.027 0-32.694 14.665-32.694 32.694s14.667 32.694 32.694 32.694c18.055 0 32.746-14.665 32.746-32.694s-14.691-32.694-32.746-32.694zm19.933 25.867-21.966 21.969a5.878 5.878 0 0 1-8.314 0l-9.534-9.537a5.877 5.877 0 0 1 0-8.314 5.877 5.877 0 0 1 8.314 0l5.377 5.38 17.808-17.811c2.297-2.296 6.017-2.296 8.314 0s2.298 6.017.001 8.313zM384.251 418.473c0-3.251-2.63-5.88-5.88-5.88H214.635a5.877 5.877 0 0 0-5.879 5.88 5.877 5.877 0 0 0 5.879 5.879h163.737a5.876 5.876 0 0 0 5.879-5.879zM214.635 440.182c-3.247 0-5.879 2.63-5.879 5.88s2.632 5.88 5.879 5.88h91.792c3.25 0 5.88-2.63 5.88-5.88s-2.63-5.88-5.88-5.88z" fill="#ffffff" data-original="#000000"></path></g></svg>