<svg xmlns="http://www.w3.org/2000/svg" version="1.1" xmlns:xlink="http://www.w3.org/1999/xlink" xmlns:svgjs="http://svgjs.com/svgjs" width="512" height="512" x="0" y="0" viewBox="0 0 32 32" style="enable-background:new 0 0 512 512" xml:space="preserve" class=""><g><path d="M16 13c-2.757 0-5 2.243-5 5s2.243 5 5 5 5-2.243 5-5-2.243-5-5-5zm3 6a1 1 0 0 1-1-1c0-1.103-.897-2-2-2a1 1 0 1 1 0-2c2.206 0 4 1.794 4 4a1 1 0 0 1-1 1zM21.53 7l-.56-2.243A1.001 1.001 0 0 0 20 4h-8c-.459 0-.858.313-.97.757L10.47 7z" fill="#ffffff" data-original="#000000"></path><path d="M28 8H4c-1.654 0-3 1.346-3 3v14c0 1.654 1.346 3 3 3h24c1.654 0 3-1.346 3-3V11c0-1.654-1.346-3-3-3zM6 14a1 1 0 1 1 0-2 1 1 0 0 1 0 2zm10 11c-3.859 0-7-3.14-7-7s3.141-7 7-7 7 3.14 7 7-3.141 7-7 7z" fill="#ffffff" data-original="#000000"></path></g></svg>