<svg xmlns="http://www.w3.org/2000/svg" version="1.1" xmlns:xlink="http://www.w3.org/1999/xlink" xmlns:svgjs="http://svgjs.com/svgjs" width="512" height="512" x="0" y="0" viewBox="0 0 512 512" style="enable-background:new 0 0 512 512" xml:space="preserve"><g><path d="M163.6 482.04h-21.072V512h226.388v-29.96h-21.073c-16.147 0-29.747-11.093-33.591-26.057H197.191c-3.844 14.965-17.444 26.057-33.591 26.057zM47.738 390.8h416.524v35.224H47.738zM464.262 150.9h-55.328l9.462 23.112-67.142 16.411-52.742 44.672-28.261-45.696-143.403 143.403-21.184-21.185 143.402-143.402-27.998-17.315H47.738v209.94h416.524z" fill="#ffffff" data-original="#000000"></path><path d="m305.464 191.202 32.263-27.327 41.073-10.039-16.02-39.13 3.144-42.164-42.164 3.144-39.13-16.02-10.039 41.073-27.328 32.263 35.961 22.24zM306.292 0h29.96v29.099h-29.96zM407.527 85.65h29.098v29.96h-29.098zM378.885 34.689l22.771-21.764 20.703 21.661-22.772 21.764z" fill="#ffffff" data-original="#000000"></path></g></svg>